<svg id="Layer_1" data-name="Layer 1" xmlns="http://www.w3.org/2000/svg" width="1080" height="1080" viewBox="0 0 1080 1080"><defs><style>.cls-1{fill:#4b5aa1;}</style></defs><path class="cls-1" d="M393.43,417.73v1.36c25.36,3.07,35.75,17.36,35.75,33,0,18.72-15.49,32.34-45.62,32.34H329.27c-.68,0-1-.68-1-2.72s.34-2.73,1-2.73h4.25a10.21,10.21,0,0,0,10.21-10.21V377.56a10.21,10.21,0,0,0-10.21-10.21H292.39c-.68,0-1-.68-1-2.72s.34-2.73,1-2.73h85.9c28.93,0,42.38,12.09,42.38,28.94C420.67,402.92,412,415,393.43,417.73Zm0-45.27c-3.57-3.58-8.68-5.11-16.17-5.11h-3.4a10.21,10.21,0,0,0-10.21,10.21v34.38a4.6,4.6,0,0,0,4.59,4.6h8.68c7.66,0,13.11-2.21,17.19-6.3,3.41-3.4,6-9.36,6-18.72C400.07,380.8,396.16,375.18,393.43,372.46Zm6.13,56.5c-4.6-4.59-10.55-6.8-20.93-6.8H368.24a4.59,4.59,0,0,0-4.59,4.59v42A10.21,10.21,0,0,0,373.86,479h7.83c8.68,0,15-3.06,18.21-6.29,3.92-3.92,7.83-10.22,7.83-21.28C407.73,441.39,404.16,433.56,399.56,429Z"/><path class="cls-1" d="M444.16,418.82h21.28c4.08,0,5.44,1.19,5.44,4.93v55.66a10.22,10.22,0,0,0,10.22,10.21h.51c.68,0,1,.51,1,2.72s-.34,2.73-1,2.73H442.46c-.68,0-1-.51-1-2.73s.34-2.72,1-2.72h1.7a10.21,10.21,0,0,0,10.21-10.21V434.47c0-5.64-10.09-.68-10.21-10.21h0Zm16.17-48.68a10.93,10.93,0,0,1,10.89,10.72,10.78,10.78,0,0,1-10.89,10.55,10.63,10.63,0,0,1-10.72-10.55A10.78,10.78,0,0,1,460.33,370.14Z"/><path class="cls-1" d="M521.09,404.12c8.86,0,12.43,4.59,16,4.59,1.71,0,3.24-1.19,4.43-3.06a2.17,2.17,0,0,1,2.21-1c2,0,2.55.34,2.55,1v29.57c0,.68-.51,1-2.55,1s-2.55-.34-2.89-1c-5.28-11.07-11.92-25.32-19.75-25.32-7.31,0-11.74,4.26-11.74,10.89,0,6.81,3.92,11.41,16.17,14.47,20.42,5.11,25.7,12.6,25.7,24.34,0,13.62-10.72,24.85-28.25,24.85-11.58,0-15.83-5.1-19.58-5.1a6.17,6.17,0,0,0-4.59,3.06,2.17,2.17,0,0,1-2.21,1c-2,0-2.56-.34-2.56-1V447.83c0-.68.51-1,2.56-1s2.55.34,2.89,1c6.64,12.25,11.4,30.83,23.49,30.83,10.72,0,15.49-5.27,15.49-12.25,0-6.64-4.6-12.09-18.05-15.32-16.34-3.91-23-11.4-23-24.68C497.44,414,508.5,404.12,521.09,404.12Z"/><path class="cls-1" d="M561.44,413.65c-.51,0-.85-.51-.85-2.73s.34-2.72.85-2.72h8.33a4.53,4.53,0,0,0,3.6-1.74,78.65,78.65,0,0,0,10.7-19.37c1.19-3.06,1.53-3.4,2.73-3.4,1.36,0,1.7.34,1.7,5.45V403.6a4.6,4.6,0,0,0,4.59,4.6h16c.51,0,.68.51.68,2.72s-.17,2.73-.68,2.73h-16a4.59,4.59,0,0,0-4.59,4.59v53.11c0,5.1,2.38,7.65,6.64,7.65,4.08,0,9.53-4.08,13.61-8.85.85-1,4.94,2.56,4.26,3.58-6.47,8.68-13.45,12.76-22.13,12.76-12.08,0-18.89-7-18.89-20.25v-48a4.59,4.59,0,0,0-4.6-4.59Z"/><path class="cls-1" d="M677,427.6c-7,0-10-6.12-10.9-12.76a8.31,8.31,0,0,0-2.21-.17,8,8,0,0,0-5.62,2.55c-2.18,2.18-7.17,16.6-9.76,28.09a5.07,5.07,0,0,0-.11,1v22.45A10.21,10.21,0,0,0,658.62,479h4.6c.51,0,.85.51.85,2.73s-.34,2.72-.85,2.72h-43.4c-.51,0-.85-.51-.85-2.72s.34-2.73.85-2.73h1.87a10.21,10.21,0,0,0,10.21-10.21V423.86a10.21,10.21,0,0,0-10.21-10.21H621c-.68,0-1-.51-1-2.73s.34-2.72,1-2.72h18.55c3.41,0,4.43,1.87,5.28,5.45l2.89,12.59h.68c3.92-12.59,14-20.08,23.32-20.08,8.68,0,13.79,5.61,13.79,11.91C685.52,423.69,681.43,427.6,677,427.6Z"/><path class="cls-1" d="M734.15,395.29c-20.94,0-37.79,17-37.79,40.17,0,15.33,7.34,28.08,18.55,34.87v-.49c0-18.55,1.37-25,6.13-29.78a17,17,0,0,1,2.19-1.86,12.95,12.95,0,1,1,21.84,0,15,15,0,0,1,2.18,1.85c4.77,4.76,6.13,11.23,6.13,29.78v.49c11.21-6.79,18.55-19.54,18.55-34.87C771.93,412.32,755.08,395.29,734.15,395.29Zm0,80.34a36.88,36.88,0,0,1-19.24-5.3c0,18.18,1.41,24.57,6.13,29.3,3.24,3.23,7.32,4.6,13.11,4.6s9.87-1.37,13.1-4.6c4.73-4.73,6.11-11.12,6.13-29.3A36.87,36.87,0,0,1,734.15,475.63Z"/><path class="cls-1" d="M246,649.33v1.37c25.36,3.06,35.74,17.36,35.74,33,0,18.73-15.49,32.34-45.62,32.34H138.79c-.68,0-1-.68-1-2.72s.34-2.72,1-2.72H188a8.35,8.35,0,0,0,8.34-8.34v-95A8.35,8.35,0,0,0,188,599H182.2c-.68,0-1-.68-1-2.72s.34-2.72,1-2.72h48.68c28.93,0,42.38,12.08,42.38,28.93C273.26,634.53,264.58,646.61,246,649.33Zm0-45.27c-3.58-3.57-8.68-5.11-16.17-5.11h-5.28a8.35,8.35,0,0,0-8.34,8.34v38.13a2.72,2.72,0,0,0,2.72,2.72h10.56c7.66,0,13.1-2.21,17.19-6.3,3.4-3.4,5.95-9.36,5.95-18.72C252.66,612.4,248.75,606.78,246,604.06Zm6.12,56.51c-4.59-4.6-10.55-6.81-20.93-6.81H219a2.72,2.72,0,0,0-2.72,2.72v45.79a8.35,8.35,0,0,0,8.34,8.34h9.7c8.68,0,15-3.07,18.21-6.3,3.92-3.92,7.83-10.21,7.83-21.28C260.32,673,256.75,665.16,252.15,660.57Z"/><path class="cls-1" d="M339.55,673.05a2.73,2.73,0,0,0,2.48-2.71V658.18c0-9.36-4.09-14.63-15.49-14.63a19.78,19.78,0,0,0-6.35,1,2.72,2.72,0,0,0-1.8,3c2,12.18-3.33,15.41-8,15.41a7.24,7.24,0,0,1-7.49-7.49c0-8.34,9.7-17.7,26.55-17.7,19.75,0,29.11,7.66,29.11,25.53v41.87c0,4.6,2,6.81,5.1,6.81a24.16,24.16,0,0,0,6.81-1.36c1.19-.34,3.24,4.25,2.05,4.76a24.68,24.68,0,0,1-12.26,2.73c-8,0-13.79-4.94-16.85-11.58h-.68c-4.77,7.83-10,11.58-20.77,11.58-17.7,0-25.36-8.51-25.36-20.09C296.58,678.13,316.58,675.22,339.55,673.05Zm-13.86,39.09c3.91,0,6.64-.68,8.85-2.89,1.82-1.83,6.22-9.94,7.71-14.77a2.39,2.39,0,0,0,.12-.8V681.1a2.74,2.74,0,0,0-2.88-2.73c-11.76.57-18.13,2.7-21.29,5.86s-3.91,6.12-3.91,12.59C314.29,707.71,317.86,712.14,325.69,712.14Z"/><path class="cls-1" d="M430.54,718.1c-10.21,0-17.53-5.11-21.79-14.64h-.68l-1.7,7.15c-.85,3.57-2,5.44-5.45,5.44H381.18c-.68,0-.85-.68-.85-2.72s.17-2.72.85-2.72h3.57a8.34,8.34,0,0,0,8.34-8.34V601.51a8.17,8.17,0,0,0-8.17-8.17h-2.38c-.68,0-.85-.68-.85-2.73s.17-2.72.85-2.72h19.57a7.49,7.49,0,0,1,7.49,7.49v38.81c0,4.59-.17,8.85-.34,11.4l.51.17c4.43-4.94,11.58-8,20.77-8,20.93,0,34.55,17.36,34.55,40.17C465.09,701.08,452.32,718.1,430.54,718.1Zm9-70.13c-3.07-3.06-6.47-4.42-11.41-4.42-8.48,0-15.18,3.74-19,11.85a2.86,2.86,0,0,0-.26,1.19v29.06a3.29,3.29,0,0,0,.05.54c1.58,8.32,6.27,19.67,8.29,21.69a14.89,14.89,0,0,0,10.89,4.43c4.94,0,8.34-1.36,11.41-4.43,4.42-4.42,7.15-11.23,7.15-30S444,652.4,439.56,648Z"/><path class="cls-1" d="M527.9,706.35c2.19-2.19,6.89-16.26,8.8-26.12a3.17,3.17,0,0,0,0-.53V653.59a8.33,8.33,0,0,0-8.34-8.34H526c-.68,0-1-.51-1-2.72s.34-2.73,1-2.73h22.63c4.09,0,4.6.51,4.6,5.45v57a8.34,8.34,0,0,0,8.34,8.34h1.53c.68,0,1,.51,1,2.72,0,2-.34,2.72-1,2.72H545.26c-3.4,0-4.42-1.87-5.28-5.44l-2.55-10.9h-.68c-4.42,11.07-13.45,18.39-25.7,18.39-15,0-25.19-6.47-25.19-22.47v-42a8.33,8.33,0,0,0-8.34-8.34H476c-.68,0-1-.51-1-2.72s.34-2.73,1-2.73h21.78c4.09,0,4.6.51,4.6,5.45v50.21c0,11.74,4.94,15.83,12.94,15.83C519.9,711.29,525.18,709.25,527.9,706.35Z"/><path class="cls-1" d="M602.8,637.76c8.85,0,12.42,4.6,16,4.6,1.71,0,3.24-1.2,4.43-3.07a2.17,2.17,0,0,1,2.21-1c2,0,2.56.34,2.56,1V660.4c0,.68-.52,1-2.56,1s-2.55-.34-2.89-1c-5.28-11.07-11.92-16.85-19.74-16.85-7.32,0-11.75,4.25-11.75,10.89,0,6.81,3.92,11.4,16.17,14.47,20.42,5.1,25.7,12.59,25.7,24.34,0,13.61-10.72,24.85-28.25,24.85-11.58,0-15.83-5.11-19.58-5.11a6.17,6.17,0,0,0-4.59,3.06,2.17,2.17,0,0,1-2.21,1c-2,0-2.56-.34-2.56-1V691.88c0-.68.51-1,2.56-1s2.55.34,2.89,1c6.64,12.26,11.4,20.43,23.49,20.43,10.72,0,15.49-5.28,15.49-12.26,0-6.63-4.6-12.08-18-15.31-16.34-3.92-23-11.41-23-24.68C579.14,647.63,590.2,637.76,602.8,637.76Z"/><path class="cls-1" d="M646.71,710.61h3.58a8.35,8.35,0,0,0,8.34-8.34V601.68a8.34,8.34,0,0,0-8.34-8.34h-1.54c-.68,0-1-.51-1-2.73,0-2,.34-2.72,1-2.72h21.62c3.4,0,4.77,1.19,4.77,4.94V635c0,6.63-.18,14-.69,21.1h.69c4.42-11.06,13.27-18.38,25.53-18.38,16,0,25.36,7.66,25.36,25.53v39a8.34,8.34,0,0,0,8.34,8.34h1.53c.68,0,1,.51,1,2.72s-.34,2.72-1,2.72H698.79c-.68,0-1-.51-1-2.72s.34-2.72,1-2.72h2.39a8.35,8.35,0,0,0,8.34-8.34V658.69c0-8.85-2.9-14.12-12.94-14.12-4.59,0-9.41,2.55-12.59,4.93-8.85,6.64-6.9,16.26-8.8,26.12a2.47,2.47,0,0,0-.05.54v26.11a8.34,8.34,0,0,0,8.34,8.34h2.38c.68,0,1,.51,1,2.72s-.34,2.72-1,2.72H646.71c-.68,0-1-.51-1-2.72S646,710.61,646.71,710.61Z"/><path class="cls-1" d="M748.5,710.61h3.57a8.34,8.34,0,0,0,8.34-8.34V601.68a8.33,8.33,0,0,0-8.34-8.34h-1.53c-.68,0-1-.34-1-2.73s.34-2.72,1-2.72h21.62c3.4,0,4.76,1.19,4.76,4.94v73.72a2.72,2.72,0,0,0,4.45,2.1l16.49-13.53c8.51-7,7.83-8-4.43-9.87-.68-.17-1-.51-1-2.72s.34-2.73,1-2.73h36.25c.69,0,.86.51.86,2.73s-.17,2.72-.86,2.72c-11.23,1.36-13.44,2.89-25.52,12.25l-10.62,8.21a2.72,2.72,0,0,0-.49,3.82L820.32,705c4.09,5.28,4.43,5.62,9.54,5.62h5.44c.68,0,1,.51,1,2.72s-.34,2.72-1,2.72H795.64c-.68,0-1-.51-1-2.72s.34-2.72,1-2.72h9.54l.17-.51a105.15,105.15,0,0,1-7.15-8.51L786.28,686.1c-1.87-2.39-6.64-8.85-8.68-11.92h-.68v28.09a8.35,8.35,0,0,0,8.34,8.34h0c.68,0,1,.51,1,2.72s-.34,2.72-1,2.72H748.5c-.68,0-1-.51-1-2.72S747.82,710.61,748.5,710.61Z"/><path class="cls-1" d="M888.66,673.05a2.72,2.72,0,0,0,2.47-2.71V658.18c0-9.36-4.08-14.63-15.49-14.63a19.83,19.83,0,0,0-6.35,1,2.72,2.72,0,0,0-1.79,3c2,12.18-3.33,15.41-8,15.41a7.24,7.24,0,0,1-7.49-7.49c0-8.34,9.7-17.7,26.55-17.7,19.74,0,29.1,7.66,29.1,25.53v41.87c0,4.6,2.05,6.81,5.11,6.81,2.38,0,24.69-21,27.07-21.63,1.2-.34,3.24,4.25,2,4.77-3.92,1.87-27.08,23-32.52,23-8,0-13.79-4.94-16.85-11.58h-.69c-4.76,7.83-10,11.58-20.76,11.58-17.7,0-25.36-8.51-25.36-20.09C845.69,678.13,865.68,675.22,888.66,673.05Zm-13.87,39.09c3.92,0,6.64-.68,8.85-2.89,1.83-1.83,6.23-9.94,7.72-14.77a2.67,2.67,0,0,0,.11-.8V681.1a2.74,2.74,0,0,0-2.88-2.73c-11.76.57-18.13,2.7-21.28,5.86s-3.92,6.12-3.92,12.59C863.39,707.71,867,712.14,874.79,712.14Z"/></svg>