<svg id="Layer_1" data-name="Layer 1" xmlns="http://www.w3.org/2000/svg" width="1080" height="1080" viewBox="0 0 1080 1080"><defs><style>.cls-1{fill:#4b5aa1;}</style></defs><path class="cls-1" d="M540,155c-148,0-267.12,120.38-267.12,283.94,0,108.36,51.88,198.48,131.12,246.47v-3.46c0-103.2,6-153.5,25-186.65l0,0c1.21-2.13,2.48-4.2,3.83-6.2a137.77,137.77,0,0,0,16.65-66.3,91.44,91.44,0,0,1-1-13.12c-.28-49.77,39.84-91,89.6-92A91.56,91.56,0,0,1,630.8,421c.07,1.1.1,2.3.1,3.59a139.36,139.36,0,0,0,13.85,61c24,33.08,31.21,82.56,31.21,196.37v3.46c79.24-48,131.12-138.11,131.12-246.47C807.08,275.36,688,155,540,155ZM676,685.39c-39.51,24-85.88,37.46-135.92,37.46s-96.49-13.5-136-37.46c.14,128.51-8.4,175,25,208.45C451.9,916.67,499.11,925,540,925s88.53-6.33,111.37-29.16C684.84,862.41,675.82,813.9,676,685.39Z"/></svg>